<?xml version="1.0" encoding="UTF-8"?>
<svg version="1.1" xmlns="http://www.w3.org/2000/svg" width="240" height="240">
<path d="M0 0 C0.66974132 -0.00538554 1.33948263 -0.01077108 2.02951914 -0.01631981 C4.26657726 -0.03059103 6.50304295 -0.0234981 8.74012756 -0.01637268 C10.3468778 -0.02207671 11.95362398 -0.0290411 13.56036377 -0.03717041 C17.91989409 -0.05511344 22.27922325 -0.05393129 26.6387794 -0.04822803 C30.27948537 -0.0451378 33.92015261 -0.05122678 37.56085306 -0.05726677 C46.15026639 -0.07131417 54.73958026 -0.06974895 63.32899475 -0.05836487 C72.18763453 -0.04688335 81.04597158 -0.06095934 89.90457147 -0.08776134 C97.51321734 -0.10991891 105.12176818 -0.1165556 112.73044401 -0.11068493 C117.27348394 -0.10731429 121.8163298 -0.10973752 126.35934258 -0.12693596 C130.63172111 -0.14240395 134.90365123 -0.13845138 139.17601204 -0.11963081 C140.74251342 -0.1159445 142.30904801 -0.1190547 143.8755188 -0.1295166 C146.01721928 -0.14272643 148.15743516 -0.13118165 150.29907227 -0.11352539 C152.09512358 -0.11321146 152.09512358 -0.11321146 153.92745876 -0.1128912 C159.09771245 0.67482022 162.17095628 3.19695528 165.55567932 7.06451416 C167.71365229 11.39148679 167.77638866 14.78985633 167.73060608 19.55833435 C167.73761536 20.46147369 167.74462463 21.36461304 167.75184631 22.29512024 C167.76939173 25.26769632 167.75781872 28.23931378 167.74427795 31.2118988 C167.74697315 33.28122134 167.7508558 35.35054264 167.75587463 37.41986084 C167.7617644 41.74983313 167.75322071 46.07947477 167.73451233 50.40940857 C167.71168044 55.96489748 167.72487619 61.51961523 167.74880219 67.0750761 C167.76323764 71.34469444 167.75866524 75.61412904 167.74829102 79.88375282 C167.74561972 81.93272302 167.7489076 83.98170981 167.75820923 86.03066063 C167.76834237 88.88929532 167.75292114 91.74666889 167.73060608 94.60520935 C167.738703 95.45461594 167.74679993 96.30402252 167.75514221 97.1791687 C167.6727346 102.86308657 167.6727346 102.86308657 165.37989807 105.47955322 C163.21302795 106.38768005 163.21302795 106.38768005 160.02552795 105.70018005 C157.21302795 104.38768005 157.21302795 104.38768005 156.21302795 102.38768005 C156.10599146 99.59152608 156.05886004 96.81922781 156.05531311 94.02244568 C156.05023239 93.15729843 156.04515167 92.29215118 156.03991699 91.40078735 C156.02920251 89.51883971 156.02058657 87.63687923 156.01379776 85.75491333 C156.00203576 82.78009815 155.98259146 79.80542992 155.9606781 76.83067322 C155.89896024 68.37169751 155.84493598 59.91273718 155.81166077 51.45359802 C155.79077284 46.28351044 155.75551961 41.11369099 155.71090317 35.9437561 C155.69669814 33.96935166 155.68801064 31.99489979 155.68484879 30.02044678 C155.67996688 27.26431503 155.65688112 24.50890144 155.62953186 21.75291443 C155.63253799 20.93103134 155.63554413 20.10914825 155.63864136 19.26235962 C155.636943 16.76503518 155.636943 16.76503518 155.21302795 13.38768005 C151.65226605 11.01383878 150.15350857 11.14038611 145.92990112 11.14717102 C144.6131691 11.14442169 143.29643707 11.14167236 141.93980408 11.13883972 C140.47724824 11.14591808 139.01469332 11.1531877 137.55213928 11.16062927 C136.01477058 11.16119331 134.47740134 11.16087697 132.94003296 11.15974426 C128.76261087 11.15916946 124.58530318 11.17094445 120.40790772 11.18489218 C116.04369321 11.19737822 111.6794762 11.19856836 107.31524658 11.20094299 C99.04923437 11.20716402 90.78327495 11.22358326 82.517286 11.24364197 C73.10748752 11.26598161 63.69768654 11.27698953 54.28786814 11.28703284 C34.92955813 11.30794895 15.57129728 11.34313701 -3.78697205 11.38768005 C-5.10103694 15.37002888 -4.92895683 19.4061268 -4.92068481 23.54844666 C-4.92295037 24.37800322 -4.92521593 25.20755979 -4.92755014 26.06225443 C-4.93388745 28.84587394 -4.93306095 31.62944474 -4.93223572 34.41307068 C-4.93522732 36.40714582 -4.93862986 38.40122039 -4.94241333 40.39529419 C-4.95125611 45.81457765 -4.95359153 51.23384532 -4.95422912 56.6531353 C-4.95517793 61.17377277 -4.95885581 65.69440654 -4.96240121 70.21504259 C-4.97054638 80.87691974 -4.97298534 91.53878844 -4.97227478 102.20066833 C-4.97167356 113.2092542 -4.9822341 124.21779113 -4.99801844 135.22636461 C-5.01107922 144.67101793 -5.01645931 154.11565523 -5.01581937 163.56031752 C-5.01556401 169.20431201 -5.01843649 174.84826301 -5.02899742 180.49224854 C-5.03865412 185.79783642 -5.03877432 191.10333899 -5.03148079 196.40892982 C-5.030432 198.35844865 -5.03281515 200.30797273 -5.03884125 202.25748253 C-5.04652255 204.91406091 -5.04194213 207.57034179 -5.03421021 210.22691345 C-5.03935377 211.00239611 -5.04449733 211.77787877 -5.04979676 212.5768609 C-5.02556356 216.33202298 -4.89196888 219.20211098 -2.78697205 222.38768005 C-2.21767314 222.39006841 -1.64837423 222.39245676 -1.06182384 222.39491749 C12.78403938 222.45402757 26.62972581 222.52974145 40.47539997 222.62339497 C47.17105428 222.66818107 53.86663968 222.70778824 60.56239319 222.7341156 C67.02045467 222.76006633 73.47827856 222.80041024 79.93619347 222.85086632 C82.40379577 222.86759083 84.87143922 222.87907018 87.33909035 222.88529396 C90.78731504 222.89487429 94.23492413 222.92286118 97.68299866 222.95530701 C98.71014481 222.95387192 99.73729095 222.95243683 100.79556274 222.95095825 C101.73365784 222.9634964 102.67175293 222.97603455 103.63827515 222.98895264 C104.45406194 222.9935616 105.26984873 222.99817057 106.11035633 223.0029192 C108.75303509 223.48649415 109.67077564 224.20500339 111.21302795 226.38768005 C111.02552795 230.01268005 111.02552795 230.01268005 110.21302795 233.38768005 C107.84037906 234.5740045 106.38429331 234.52361009 103.73643494 234.5415802 C102.79444748 234.55018066 101.85246002 234.55878113 100.88192749 234.56764221 C99.84505295 234.57190216 98.80817841 234.57616211 97.73988342 234.58055115 C96.10549065 234.59281738 96.10549065 234.59281738 94.43807983 234.60533142 C90.81879735 234.63021823 87.19955422 234.64671165 83.58021545 234.66111755 C81.72792517 234.66910307 81.72792517 234.66910307 79.83821487 234.67724991 C73.97452666 234.70123779 68.11085469 234.72047527 62.24713123 234.73327196 C55.48856737 234.74831511 48.73048824 234.78336398 41.97210968 234.83527315 C36.11164642 234.87874281 30.25134501 234.89462776 24.39073563 234.90100479 C21.90207819 234.90771959 19.41342844 234.92294741 16.92487717 234.9468956 C13.43702746 234.97853981 9.95049546 234.97858391 6.46253967 234.97117615 C5.43781052 234.98758148 4.41308136 235.00398682 3.3572998 235.02088928 C-3.09028472 234.9649567 -7.99056175 233.93382828 -12.78697205 229.38768005 C-16.21490418 225.07974115 -16.21353476 220.95602702 -16.1746521 215.66455078 C-16.18003764 214.78654829 -16.18542318 213.90854581 -16.19097191 213.00393718 C-16.20527851 210.06212879 -16.19814107 207.12076865 -16.19102478 204.17893982 C-16.19672692 202.06973407 -16.20369058 199.9605314 -16.21182251 197.85133362 C-16.22978607 192.12202632 -16.22857951 186.39287191 -16.22288013 180.66354489 C-16.21979294 175.88207675 -16.22587548 171.10063817 -16.23191887 166.31917423 C-16.24597296 155.04014537 -16.2443954 143.76119223 -16.23301697 132.48216248 C-16.22153422 120.84243971 -16.23561218 109.2029473 -16.26241344 97.56325489 C-16.28455748 87.57246831 -16.29121075 77.5817541 -16.28533703 67.59094471 C-16.28196324 61.62269287 -16.28441064 55.65458872 -16.30158806 49.6863575 C-16.31703439 44.07450974 -16.31312711 38.46300373 -16.29428291 32.85116959 C-16.29059067 30.79122547 -16.29372392 28.73125616 -16.3041687 26.67133522 C-16.31733665 23.85975863 -16.30586823 21.04932038 -16.28817749 18.23779297 C-16.2977825 17.42212673 -16.3073875 16.6064605 -16.31728357 15.7660771 C-16.24953362 10.53488598 -15.330867 7.48027473 -11.78697205 3.38768005 C-7.90328225 0.29722837 -4.89526053 0.0099374 0 0 Z " fill="#000000" transform="translate(15.786972045898438,2.6123199462890625)"/>
<path d="M0 0 C12.42557119 9.47212473 23.05748023 21.68824542 25.30078125 37.75390625 C26.4087208 54.92891983 24.69122965 68.54142066 14.30078125 82.75390625 C13.83929688 83.39972656 13.3778125 84.04554688 12.90234375 84.7109375 C5.05026718 94.76431878 -7.22269818 101.56900832 -19.69921875 103.75390625 C-36.64223881 105.14498771 -51.53496007 103.77347204 -65.2734375 92.84375 C-66.07394531 92.15410156 -66.87445313 91.46445313 -67.69921875 90.75390625 C-68.42753906 90.13644531 -69.15585938 89.51898438 -69.90625 88.8828125 C-80.30647081 79.31779107 -86.12637505 66.0871253 -86.90234375 52.08984375 C-87.10808826 34.70443305 -82.77853719 20.67941162 -70.69921875 7.75390625 C-51.9493014 -9.7685206 -22.0842611 -14.80944568 0 0 Z M-65.57421875 18.62890625 C-74.66881594 29.7517949 -76.63606648 41.73093145 -75.69921875 55.75390625 C-73.78176353 67.46810749 -66.48433595 78.35842449 -57.07421875 85.37890625 C-46.79047002 92.32696967 -34.9688165 95.28676942 -22.69921875 93.2578125 C-10.33053731 90.46539335 0.01248146 84.25704746 7.41796875 73.75 C14.29630785 62.34793995 16.54965911 51.32541903 14.2109375 38.19140625 C11.45104955 27.7677951 6.03852512 18.26279864 -2.69921875 11.75390625 C-4.853971 10.99516313 -4.853971 10.99516313 -6.69921875 10.75390625 C-6.69921875 10.09390625 -6.69921875 9.43390625 -6.69921875 8.75390625 C-8.59254409 7.93557903 -10.48899608 7.12448357 -12.38671875 6.31640625 C-13.44246094 5.86394531 -14.49820313 5.41148437 -15.5859375 4.9453125 C-33.8765626 -2.05423663 -52.69324096 4.91510662 -65.57421875 18.62890625 Z " fill="#000000" transform="translate(214.69921875,133.24609375)"/>
<path d="M0 0 C7.88406958 4.95013893 12.3229301 11.71488404 15.21484375 20.390625 C16.04239411 31.70500204 15.19897358 39.79384588 7.83984375 48.703125 C2.40238947 54.53476573 -3.27567415 57.95971893 -11.30078125 58.7265625 C-22.15961263 58.8401486 -29.52575002 57.72656578 -37.66015625 50.265625 C-44.98010027 42.28494267 -46.47874793 34.73547358 -46.17578125 24.0234375 C-45.41559256 16.95368267 -42.94541045 10.41141287 -37.78515625 5.390625 C-26.74885352 -3.02903999 -13.11381031 -6.19687542 0 0 Z M-23.78515625 9.390625 C-23.78515625 10.380625 -23.78515625 11.370625 -23.78515625 12.390625 C-15.54365396 18.99759135 -6.09618732 21.5722892 4.21484375 22.390625 C1.42430279 15.35360866 -1.90105482 11.67363707 -8.78515625 8.390625 C-14.16697384 6.71253058 -18.60958496 7.55761017 -23.78515625 9.390625 Z M-33.78515625 19.390625 C-35.86353652 26.55281312 -36.14034885 31.62655671 -32.78515625 38.390625 C-29.30206515 43.98844998 -24.61776425 46.66959751 -18.34765625 48.265625 C-11.52187781 48.505126 -6.069416 46.85288879 -0.78515625 42.390625 C1.07781447 39.8247392 2.69061023 37.1693162 4.21484375 34.390625 C1.212509 32.63799304 -1.73002969 31.90472499 -5.11621094 31.19848633 C-13.35441323 29.45382165 -19.77454512 26.56006616 -26.89453125 22.09765625 C-29.31935971 20.66569674 -31.04354294 19.83646988 -33.78515625 19.390625 Z " fill="#000000" transform="translate(105.78515625,51.609375)"/>
<path d="M0 0 C2.49348845 2.01679213 4.71333471 4.11941704 6.859375 6.50390625 C7.54 7.2309375 7.54 7.2309375 8.234375 7.97265625 C10.93380858 10.97884365 12.96843248 13.35972189 12.859375 17.50390625 C11.234375 19.87890625 11.234375 19.87890625 8.859375 21.50390625 C5.50504732 21.35616262 4.19547206 20.84645431 1.82421875 18.4296875 C0.82068359 17.13611328 0.82068359 17.13611328 -0.203125 15.81640625 C-5.61127352 9.48270211 -12.83122444 4.98885616 -21.140625 3.50390625 C-33.09518128 2.57495347 -42.88209965 4.25958597 -52.3671875 11.84765625 C-54.20212699 13.56134423 -55.75192889 15.36416335 -57.328125 17.31640625 C-59.18585532 19.58193103 -60.03165846 20.45461186 -62.765625 21.69140625 C-65.140625 21.50390625 -65.140625 21.50390625 -67.515625 19.87890625 C-69.140625 17.50390625 -69.140625 17.50390625 -68.9375 15.1015625 C-66.65390668 7.65749604 -58.30355826 0.9675438 -51.7578125 -2.90625 C-35.25842946 -11.55959615 -15.34454059 -11.1723936 0 0 Z " fill="#000000" transform="translate(118.140625,120.49609375)"/>
<path d="M0 0 C1 1 1 1 1.390625 3.51953125 C0.83499285 8.47021369 -1.50868519 11.60977847 -4.25 15.6875 C-5.35333514 17.37729702 -6.4561856 19.06741058 -7.55859375 20.7578125 C-8.41300049 22.05380371 -8.41300049 22.05380371 -9.28466797 23.37597656 C-11.49720744 26.76060142 -13.64087594 30.18590213 -15.78320312 33.61523438 C-20.32822868 40.88843619 -24.94081688 48.07034424 -30 55 C-36.44055638 54.69987332 -39.14089398 52.77707002 -43.375 48.3125 C-43.90738281 47.79494141 -44.43976563 47.27738281 -44.98828125 46.74414062 C-48.29795459 43.36288402 -49.85178628 40.9192841 -50 36 C-48.9375 34.125 -48.9375 34.125 -47 33 C-44.1875 32.4375 -44.1875 32.4375 -41 33 C-39.23564542 34.4390126 -37.78169805 35.96318936 -36.296875 37.6875 C-35.86890625 38.120625 -35.4409375 38.55375 -35 39 C-34.34 39 -33.68 39 -33 39 C-31.78863355 37.42100331 -31.78863355 37.42100331 -30.63671875 35.328125 C-29.93373657 34.12700073 -29.93373657 34.12700073 -29.21655273 32.90161133 C-28.71196533 32.02657959 -28.20737793 31.15154785 -27.6875 30.25 C-23.2328422 22.68565499 -18.683244 15.19821146 -13.9375 7.8125 C-13.38989014 6.94592773 -12.84228027 6.07935547 -12.27807617 5.18652344 C-11.76220947 4.38891602 -11.24634277 3.59130859 -10.71484375 2.76953125 C-10.26230225 2.06417236 -9.80976074 1.35881348 -9.34350586 0.63208008 C-6.33991773 -3.01665455 -3.73682648 -1.7700757 0 0 Z " fill="#000000" transform="translate(208,156)"/>
<path d="M0 0 C1.01255859 0.00185303 2.02511719 0.00370605 3.06835938 0.00561523 C4.17308594 0.0049707 5.2778125 0.00432617 6.41601562 0.00366211 C7.56972656 0.02364258 8.7234375 0.04362305 9.91210938 0.06420898 C11.06582031 0.05711914 12.21953125 0.0500293 13.40820312 0.04272461 C21.80325028 0.10639766 21.80325028 0.10639766 24.24072266 1.68896484 C25.85222301 4.18279355 25.8002348 5.98111697 25.81054688 8.93920898 C25.81634766 10.52862305 25.81634766 10.52862305 25.82226562 12.15014648 C25.81066406 13.25616211 25.7990625 14.36217773 25.78710938 15.50170898 C25.79871094 16.60772461 25.8103125 17.71374023 25.82226562 18.85327148 C25.81839844 19.91288086 25.81453125 20.97249023 25.81054688 22.06420898 C25.80716309 23.03487305 25.8037793 24.00553711 25.80029297 25.00561523 C25.41210938 27.50170898 25.41210938 27.50170898 24.11376953 29.35327148 C22.41210938 30.50170898 22.41210938 30.50170898 18.78710938 30.31420898 C17.67335937 30.04608398 16.55960938 29.77795898 15.41210938 29.50170898 C13.81798654 26.31346331 14.31036202 22.87274236 14.34960938 19.37670898 C14.35412109 18.62260742 14.35863281 17.86850586 14.36328125 17.09155273 C14.37507438 15.22823772 14.39300996 13.36496343 14.41210938 11.50170898 C13.37570313 11.52491211 12.33929688 11.54811523 11.27148438 11.57202148 C9.90169993 11.59078565 8.53190767 11.60898516 7.16210938 11.62670898 C6.48019531 11.6434668 5.79828125 11.66022461 5.09570312 11.67749023 C1.39161233 11.71345228 -1.52428944 11.72148949 -4.58789062 9.50170898 C-5.52539062 7.12670898 -5.52539062 7.12670898 -5.58789062 4.50170898 C-4.03384768 1.60049675 -3.28201782 0.63627798 0 0 Z " fill="#000000" transform="translate(125.587890625,36.498291015625)"/>
<path d="M0 0 C1.10923828 0.00064453 2.21847656 0.00128906 3.36132812 0.00195312 C5.09866211 0.02612305 5.09866211 0.02612305 6.87109375 0.05078125 C8.03318359 0.04755859 9.19527344 0.04433594 10.39257812 0.04101562 C19.04167429 0.09636179 19.04167429 0.09636179 21.30859375 2.36328125 C21.68359375 5.30078125 21.68359375 5.30078125 21.30859375 8.36328125 C18.80988124 11.09030252 17.36612827 11.35869073 13.63671875 11.65625 C12.2770334 11.63644876 10.91750035 11.60087327 9.55859375 11.55078125 C8.86121094 11.53724609 8.16382812 11.52371094 7.4453125 11.50976562 C5.73273834 11.47457575 4.02056434 11.4207728 2.30859375 11.36328125 C2.34339844 12.48347656 2.37820312 13.60367188 2.4140625 14.7578125 C2.44220214 16.23045376 2.46950212 17.70311123 2.49609375 19.17578125 C2.53379883 20.28276367 2.53379883 20.28276367 2.57226562 21.41210938 C2.64584278 26.83229341 2.64584278 26.83229341 1.0234375 29.38671875 C-1.93616451 31.07214131 -4.51976778 30.12682384 -7.69140625 29.36328125 C-9.74733081 25.25143212 -8.92049633 19.94493837 -8.94140625 15.42578125 C-8.96203125 14.31525391 -8.98265625 13.20472656 -9.00390625 12.06054688 C-9.0090625 10.99642578 -9.01421875 9.93230469 -9.01953125 8.8359375 C-9.02887695 7.85890869 -9.03822266 6.88187988 -9.04785156 5.87524414 C-8.69140625 3.36328125 -8.69140625 3.36328125 -7.52661133 1.54394531 C-4.95239225 -0.11215732 -3.04728397 -0.00891512 0 0 Z " fill="#000000" transform="translate(38.69140625,36.63671875)"/>
<path d="M0 0 C1.9778967 1.53685728 2.89356648 2.4058797 3.34057617 4.90112305 C3.32486572 5.59761963 3.30915527 6.29411621 3.29296875 7.01171875 C3.28330078 7.76904297 3.27363281 8.52636719 3.26367188 9.30664062 C3.23853516 10.09232422 3.21339844 10.87800781 3.1875 11.6875 C3.17396484 12.48478516 3.16042969 13.28207031 3.14648438 14.10351562 C3.11117089 16.06929967 3.05736447 18.03473582 3 20 C4.20398438 19.97679687 5.40796875 19.95359375 6.6484375 19.9296875 C8.22395215 19.91093137 9.79947348 19.89273101 11.375 19.875 C12.1690625 19.85824219 12.963125 19.84148437 13.78125 19.82421875 C15.85492015 19.80664527 17.92883241 19.89664832 20 20 C22 22 22 22 22.25 25 C22 28 22 28 20 30 C15.87248852 30.45815988 11.71249232 30.32400858 7.5625 30.3125 C6.40427734 30.32861328 5.24605469 30.34472656 4.05273438 30.36132812 C2.94349609 30.36197266 1.83425781 30.36261719 0.69140625 30.36328125 C-0.83697876 30.36775269 -0.83697876 30.36775269 -2.39624023 30.37231445 C-5 30 -5 30 -6.83081055 28.81713867 C-8.43739841 26.32020122 -8.38812448 24.52086222 -8.3984375 21.5625 C-8.40230469 20.50289062 -8.40617187 19.44328125 -8.41015625 18.3515625 C-8.39855469 17.24554688 -8.38695313 16.13953125 -8.375 15 C-8.38660156 13.89398438 -8.39820312 12.78796875 -8.41015625 11.6484375 C-8.40628906 10.58882812 -8.40242188 9.52921875 -8.3984375 8.4375 C-8.39505371 7.46683594 -8.39166992 6.49617187 -8.38818359 5.49609375 C-8 3 -8 3 -6.63134766 1.18359375 C-4.29840384 -0.50902996 -2.81285252 -0.42192788 0 0 Z " fill="#000000" transform="translate(38,135)"/>
<path d="M0 0 C3 0.25 3 0.25 5 2.25 C5.23046875 5.21875 5.23046875 5.21875 5.1875 8.75 C5.18105469 9.9153125 5.17460938 11.080625 5.16796875 12.28125 C5 15.25 5 15.25 4 17.25 C1.6875 18.0625 1.6875 18.0625 -1 18.25 C-3.14453125 17.171875 -3.14453125 17.171875 -5 15.25 C-5.4609375 12.18359375 -5.4609375 12.18359375 -5.375 8.6875 C-5.36210938 7.53121094 -5.34921875 6.37492188 -5.3359375 5.18359375 C-4.86995764 1.11439749 -4.08547568 0.34045631 0 0 Z " fill="#000000" transform="translate(90,127.75)"/>
</svg>
