<?xml version="1.0" encoding="UTF-8"?>
<svg version="1.1" xmlns="http://www.w3.org/2000/svg" width="253" height="199">
<path d="M0 0 C83.49 0 166.98 0 253 0 C253 65.67 253 131.34 253 199 C169.51 199 86.02 199 0 199 C0 133.33 0 67.66 0 0 Z " fill="#FEFEFE" transform="translate(0,0)"/>
<path d="M0 0 C1.46993372 1.10979996 2.9300148 2.23290593 4.375 3.375 C5.40625 4.138125 6.4375 4.90125 7.5 5.6875 C13.97939266 11.74432357 18.68258671 18.44350759 22.6875 26.3125 C23.01282715 26.94389893 23.3381543 27.57529785 23.67333984 28.22583008 C28.33540911 37.78125567 29.91604924 47.11080139 29.8125 57.6875 C29.80420166 58.78545898 29.79590332 59.88341797 29.78735352 61.01464844 C29.38179201 80.53355861 21.10146661 96.93554481 7.140625 110.5546875 C2.3144478 114.71686045 -2.91662163 117.79626121 -8.5625 120.6875 C-9.19422119 121.01322998 -9.82594238 121.33895996 -10.47680664 121.67456055 C-20.34960267 126.48765814 -29.95498606 127.93693117 -40.875 127.875 C-42.65898193 127.86533203 -42.65898193 127.86533203 -44.47900391 127.85546875 C-63.68465959 127.45682616 -79.26675168 119.08789208 -92.625 105.375 C-106.42485707 90.48347066 -111.24821603 71.83536242 -110.89453125 52.0390625 C-110.06797738 32.17733945 -99.51153293 16.40049433 -85.4140625 3.32421875 C-60.8529848 -17.26508616 -26.03048295 -17.9155583 0 0 Z " fill="#FDFDFD" transform="translate(209.625,57.625)"/>
<path d="M0 0 C0.90256122 -0.00413249 1.80512243 -0.00826498 2.73503399 -0.0125227 C3.72665444 -0.00172837 4.7182749 0.00906595 5.73994446 0.02018738 C7.33139266 0.01964497 7.33139266 0.01964497 8.95499134 0.01909161 C12.39562542 0.02133409 15.83577435 0.04419546 19.27632141 0.0677948 C21.39794174 0.0722046 23.51956533 0.07526578 25.64118958 0.07695007 C33.51571032 0.09269089 41.39016123 0.13457439 49.26460266 0.17326355 C66.85772766 0.23513855 84.45085266 0.29701355 102.57710266 0.36076355 C102.57710266 66.03076355 102.57710266 131.70076355 102.57710266 199.36076355 C-0.69355261 199.36076355 -0.69355261 199.36076355 -17.42289734 191.36076355 C-18.34844421 190.91861511 -19.27399109 190.47646667 -20.22758484 190.0209198 C-40.27399008 179.77056245 -54.07533442 162.1907633 -61.23539734 141.1146698 C-68.19364036 119.11838184 -65.04565686 95.83745577 -54.96586609 75.40763855 C-44.61097425 56.15912915 -25.8609182 41.35342427 -4.99711609 34.91545105 C1.11570622 33.59827234 7.36400195 33.00875565 13.57710266 32.36076355 C13.57710266 28.73076355 13.57710266 25.10076355 13.57710266 21.36076355 C11.68024719 21.41297058 11.68024719 21.41297058 9.74507141 21.4662323 C8.08492843 21.49437032 6.42477111 21.52167046 4.76460266 21.54826355 C3.93122375 21.57340027 3.09784485 21.59853699 2.23921204 21.62443542 C1.03554993 21.63893738 1.03554993 21.63893738 -0.19242859 21.6537323 C-1.30001526 21.67729797 -1.30001526 21.67729797 -2.42997742 21.70133972 C-5.01668298 21.25928971 -5.8723912 20.45002778 -7.42289734 18.36076355 C-7.72159418 15.760344 -7.84234891 13.45377196 -7.79789734 10.86076355 C-7.8094989 10.18400574 -7.82110046 9.50724792 -7.83305359 8.8099823 C-7.80386887 3.87776439 -7.80386887 3.87776439 -6.17442608 1.6665144 C-3.95789704 0.0141095 -2.74828136 -0.0096657 0 0 Z M-28.42289734 63.36076355 C-29.10867859 63.96533386 -29.79445984 64.56990417 -30.50102234 65.1927948 C-42.46587917 76.40413966 -50.96275899 93.26055376 -51.67289734 109.73576355 C-52.15046102 130.79278431 -46.48258977 149.39775446 -31.82524109 164.9818573 C-19.21417689 177.46988673 -3.5818203 185.64400426 14.34614563 185.82926941 C15.49486145 185.81903748 16.64357727 185.80880554 17.82710266 185.79826355 C19.02351379 185.78996521 20.21992493 185.78166687 21.45259094 185.77311707 C40.81330261 185.40267174 56.67419017 177.95212618 70.57710266 164.36076355 C82.82516985 150.60524194 89.19421987 134.3946765 89.01460266 116.04826355 C89.00215515 114.40132507 89.00215515 114.40132507 88.98945618 112.72111511 C88.59507689 93.74038406 80.85126916 77.93920894 67.57710266 64.36076355 C56.24799557 54.27320244 40.98778756 46.18981938 25.57710266 45.36076355 C24.41179016 45.29631042 23.24647766 45.2318573 22.04585266 45.16545105 C3.2910439 44.46919531 -14.37930617 50.81406679 -28.42289734 63.36076355 Z " fill="#393939" transform="translate(150.4228973388672,-0.3607635498046875)"/>
<path d="M0 0 C18.48 0 36.96 0 56 0 C56 35.97 56 71.94 56 109 C55.67 109 55.34 109 55 109 C54.85304688 107.94683594 54.70609375 106.89367187 54.5546875 105.80859375 C51.11812032 82.9967141 41.00519705 62.90532764 22.34130859 48.74121094 C10.60571321 40.48476768 -3.68120259 34.55639102 -18 33 C-18 29.04 -18 25.08 -18 21 C-16.19402344 20.90912109 -16.19402344 20.90912109 -14.3515625 20.81640625 C-12.77602923 20.73200268 -11.20050904 20.64735459 -9.625 20.5625 C-8.8309375 20.52318359 -8.036875 20.48386719 -7.21875 20.44335938 C-2.97398779 20.31106596 -2.97398779 20.31106596 1 19 C1.02690104 16.20826945 1.04679053 13.41679652 1.0625 10.625 C1.07087891 9.8309375 1.07925781 9.036875 1.08789062 8.21875 C1.23040151 3.97607778 1.23040151 3.97607778 0 0 Z " fill="#FCFCFC" transform="translate(197,0)"/>
<path d="M0 0 C0.33 0 0.66 0 1 0 C1 25.08 1 50.16 1 76 C-24.41 76 -49.82 76 -76 76 C-76 75.67 -76 75.34 -76 75 C-75.23558594 74.91363281 -74.47117188 74.82726562 -73.68359375 74.73828125 C-50.15586007 71.65221269 -31.63650909 61.19711264 -16.51171875 42.99609375 C-6.89848015 30.30264433 -2.54095794 15.51321688 0 0 Z " fill="#FCFCFC" transform="translate(252,123)"/>
<path d="M0 0 C2.16650391 1.53979492 2.16650391 1.53979492 4 4 C4.34662239 6.73486195 4.46475933 9.07541734 4.3984375 11.80078125 C4.40317502 13.35091297 4.40839871 14.90104326 4.4140625 16.45117188 C4.39935631 18.88038925 4.3750503 21.30902955 4.33984375 23.73803711 C3.7202593 34.23709723 3.7202593 34.23709723 8 43.2890625 C8.54188965 43.76996338 9.0837793 44.25086426 9.64208984 44.74633789 C11 46 11 46 11.7265625 48.66015625 C11.49248926 54.19688855 10.86183043 57.72067438 7 62 C3.16425223 65.38448332 -0.63464029 65.51974499 -5.5625 65.34375 C-9.29189598 64.81780954 -11.28646803 63.58116456 -14 61 C-16.90390245 56.2226121 -17.41451851 52.48092053 -16.5859375 47.0859375 C-15.73383597 44.05245605 -14.239583 42.17171685 -12 40 C-11.01 39.505 -11.01 39.505 -10 39 C-9.98541748 37.92516357 -9.97083496 36.85032715 -9.95581055 35.74291992 C-9.8978511 31.75625283 -9.82061871 27.77015199 -9.73754883 23.78393555 C-9.70428828 22.05844307 -9.67625981 20.33284151 -9.65356445 18.60717773 C-9.62003847 16.12696834 -9.56772594 13.6477597 -9.51171875 11.16796875 C-9.50213387 10.01001045 -9.50213387 10.01001045 -9.49235535 8.82865906 C-9.34621915 3.50920481 -9.34621915 3.50920481 -7.65161133 1.0168457 C-4.98654924 -0.6239501 -3.04824651 -0.43546379 0 0 Z " fill="#393939" transform="translate(172,64)"/>
<path d="M0 0 C0.67358047 -0.00058411 1.34716095 -0.00116821 2.04115295 -0.00177002 C4.26006213 0.00100924 6.4776156 0.03209042 8.69628906 0.06347656 C10.23756171 0.0709396 11.77884386 0.07663224 13.32012939 0.08062744 C17.37113779 0.0958791 21.42156992 0.13515618 25.47235107 0.17944336 C29.60811569 0.22040658 33.74397368 0.23864066 37.87988281 0.25878906 C45.99082396 0.3016515 54.10129727 0.36989642 62.21191406 0.45410156 C61.90320285 2.24642494 61.58982342 4.03794478 61.27441406 5.82910156 C61.10039063 6.82683594 60.92636719 7.82457031 60.74707031 8.85253906 C60.21191406 11.45410156 60.21191406 11.45410156 59.21191406 13.45410156 C50.65842636 13.52357551 42.10505631 13.57689933 33.55135632 13.60953808 C29.57962779 13.62520212 25.60809213 13.64645355 21.63647461 13.68041992 C17.80448317 13.71298753 13.97267738 13.73094901 10.14055824 13.73873329 C8.67768747 13.74428152 7.214827 13.75511581 5.75203514 13.77129173 C3.70482711 13.79303235 1.65838866 13.79607003 -0.38891602 13.79467773 C-2.13764763 13.80467049 -2.13764763 13.80467049 -3.92170715 13.81486511 C-6.78808594 13.45410156 -6.78808594 13.45410156 -8.62944031 12.1164093 C-10.41657365 9.55241087 -10.72475381 7.55737601 -10.78808594 4.45410156 C-7.67187465 0.16584731 -5.13652564 -0.03749289 0 0 Z " fill="#D7423B" transform="translate(10.7880859375,70.5458984375)"/>
<path d="M0 0 C0.99174728 0.00565979 1.98349457 0.01131958 3.0052948 0.01715088 C6.16418289 0.03949156 9.32192511 0.08968462 12.48046875 0.140625 C14.62563463 0.16069294 16.77081834 0.1789432 18.91601562 0.1953125 C24.1671063 0.23934898 29.41734343 0.30836151 34.66796875 0.390625 C35.16296875 7.320625 35.16296875 7.320625 35.66796875 14.390625 C29.20848565 14.51432614 22.7496936 14.6050139 16.28930664 14.6652832 C14.09224435 14.69041009 11.89526551 14.72451746 9.69848633 14.76782227 C6.5383647 14.82855262 3.37934918 14.85685333 0.21875 14.87890625 C-0.76163742 14.90471268 -1.74202484 14.9305191 -2.75212097 14.95710754 C-7.45571012 14.95903713 -9.60900128 14.93986982 -13.45239258 12.02026367 C-15.33203125 9.390625 -15.33203125 9.390625 -15.95703125 6.828125 C-13.97910382 -0.88579196 -6.43005112 -0.13849497 0 0 Z " fill="#D94D46" transform="translate(29.33203125,108.609375)"/>
<path d="M0 0 C0.81700882 0.0028299 1.63401764 0.00565979 2.4757843 0.00857544 C5.08426584 0.01976709 7.69240355 0.0448696 10.30078125 0.0703125 C12.0696565 0.08034362 13.83853713 0.08946924 15.60742188 0.09765625 C19.94284074 0.11970308 24.2780027 0.1542258 28.61328125 0.1953125 C29.12085987 1.60928152 29.6190305 3.02662979 30.11328125 4.4453125 C30.39171875 5.23421875 30.67015625 6.023125 30.95703125 6.8359375 C31.61328125 9.1953125 31.61328125 9.1953125 31.61328125 13.1953125 C25.98999046 13.31896402 20.36749172 13.4096756 14.74316406 13.4699707 C12.83026342 13.49510631 10.91745874 13.52922034 9.00488281 13.57250977 C6.25431652 13.63320502 3.50502026 13.66153095 0.75390625 13.68359375 C-0.5275528 13.72230339 -0.5275528 13.72230339 -1.8348999 13.76179504 C-7.75788524 13.76458926 -7.75788524 13.76458926 -10.96191406 10.86401367 C-12.38671875 8.1953125 -12.38671875 8.1953125 -12.32421875 5.0078125 C-10.31776261 -1.01155592 -5.37014954 -0.06982935 0 0 Z " fill="#D7423B" transform="translate(41.38671875,148.8046875)"/>
<path d="M0 0 C1.03769531 -0.01417969 2.07539062 -0.02835938 3.14453125 -0.04296875 C6.22520533 0.19035573 8.40511592 0.88631114 11.1875 2.1875 C11.1875 2.8475 11.1875 3.5075 11.1875 4.1875 C9.50148367 5.51504799 7.7602617 6.77259889 6 8 C-1.37651758 13.2902411 -7.54883264 19.65106003 -13.8125 26.1875 C-15.8125 25.1875 -15.8125 25.1875 -16.8125 22.1875 C-17.34672104 16.21860719 -17.34556722 11.25156302 -13.8125 6.1875 C-9.33202119 1.79065679 -6.26802564 0.03864381 0 0 Z " fill="#3B3B3B" transform="translate(108.8125,30.8125)"/>
<path d="M0 0 C4.0730817 2.41508004 6.47541739 4.7144039 8.5390625 9.05859375 C8.8671875 12.28515625 8.8671875 12.28515625 8.7890625 15.68359375 C8.76585937 17.37355469 8.76585937 17.37355469 8.7421875 19.09765625 C8.5390625 22.05859375 8.5390625 22.05859375 7.5390625 25.05859375 C6.8790625 25.05859375 6.2190625 25.05859375 5.5390625 25.05859375 C4.1640625 23.625 4.1640625 23.625 2.5390625 21.62109375 C-3.87565657 14.08613268 -11.4171733 7.7880906 -19.4609375 2.05859375 C-14.80513291 -2.59721084 -5.86597108 -2.24396672 0 0 Z " fill="#393939" transform="translate(237.4609375,31.94140625)"/>
</svg>
